<svg id="Capa_1" enable-background="new 0 0 512.002 512.002" height="512" viewBox="0 0 512.002 512.002" width="512" xmlns="http://www.w3.org/2000/svg"><g><g><path d="m137.146 357.737 118.855-199.603 118.854 199.603z" fill="#ffbdbc"/></g><g fill="#020288"><path d="m451.151 500.807-57.305-476.858c-1.641-13.653-13.248-23.949-26.999-23.949h-221.692c-13.751 0-25.358 10.296-27 23.949l-57.304 476.858c-.659 5.483 3.252 10.463 8.736 11.122 5.482.661 10.462-3.252 11.122-8.735l7.867-65.469h334.85l7.867 65.469c.61 5.078 4.926 8.808 9.916 8.808.398 0 .801-.023 1.206-.072 5.484-.66 9.394-5.64 8.736-11.123zm-360.172-83.082 47.033-391.389c.434-3.612 3.504-6.336 7.142-6.336h221.692c3.638 0 6.708 2.724 7.142 6.336l47.033 391.389z"/><path d="m298.512 46.156h-85.022c-18.396 0-33.362 14.966-33.362 33.361 0 18.396 14.966 33.362 33.362 33.362h85.021c18.396 0 33.362-14.966 33.362-33.362 0-18.395-14.965-33.361-33.361-33.361zm0 46.724h-85.022c-7.368 0-13.362-5.994-13.362-13.362 0-7.367 5.994-13.361 13.362-13.361h85.021c7.368 0 13.362 5.994 13.362 13.361 0 7.368-5.994 13.362-13.361 13.362z"/><path d="m256.001 217.809c-5.523 0-10 4.478-10 10v48.213c0 5.522 4.477 10 10 10s10-4.478 10-10v-48.213c0-5.523-4.477-10-10-10z"/><path d="m265.231 314.58c-2.431-6.456-11.573-8.258-16.3-3.25-6.262 6.181-1.736 17.145 7.071 17.069 6.88.215 12.086-7.543 9.229-13.819z"/></g></g></svg>